<?xml version="1.0" encoding="utf-8"?>
<!-- Generator: Adobe Illustrator 16.0.4, SVG Export Plug-In . SVG Version: 6.00 Build 0)  -->
<!DOCTYPE svg PUBLIC "-//W3C//DTD SVG 1.1//EN" "http://www.w3.org/Graphics/SVG/1.1/DTD/svg11.dtd">
<svg version="1.1" id="Layer_1" xmlns="http://www.w3.org/2000/svg" xmlns:xlink="http://www.w3.org/1999/xlink" x="0px" y="0px"
	 width="324.827px" height="461.447px" viewBox="0 0 324.827 461.447" enable-background="new 0 0 324.827 461.447"
	 xml:space="preserve">
<title>Measurements</title>
<g id="Lager_2">
	<g id="Lager_1-2">
		<path fill="#C19A67" d="M2.075,72.024l0.897,1.264l23.747,32.86l4.487,6.193c21.953,30.333,26.073,66.062,9.353,78.157
			l-6.193,4.487c-30.977,22.408-14.534,97.317,38.333,170.42c52.868,73.102,118.866,112.13,149.806,89.747l86.739-62.726
			c30.979-22.408,14.535-97.318-38.333-170.42c-42.238-58.403-92.844-95.081-127.296-96.054
			c7.583-21.422,0.947-52.551-19.515-80.887l-4.486-6.193L95.866,6.012l-0.897-1.264C91.38-0.206,83.91-1.406,79.575,1.728
			l-1.858,1.339L5.891,55.113l-1.264,0.897C-0.359,59.813-1.482,66.86,2.075,72.024z M85.073,356.394
			c-50.176-69.386-62.208-134.286-41.708-149.073s78.359,16.961,128.497,86.347c50.138,69.386,62.207,134.286,41.707,149.073
			c-20.499,14.787-78.271-16.961-128.483-86.348H85.073z M165.96,146.908l-10.11,7.305c-3.421,2.475-4.188,7.253-1.713,10.674
			c2.475,3.42,7.253,4.187,10.674,1.712l0,0l16.202-11.716c6.874,4.251,13.477,8.928,19.767,14.004l-16.329,11.817
			c-3.42,2.475-4.187,7.253-1.713,10.673c2.475,3.42,7.254,4.187,10.674,1.713l0,0l18.616-13.46
			c0.253-0.177,0.493-0.379,0.708-0.569c5.485,4.988,11.021,10.44,16.607,16.354l-16.266,11.767
			c-3.421,2.475-4.188,7.253-1.713,10.673s7.253,4.187,10.674,1.712l17.58-12.714c4.828,5.628,9.622,11.594,14.383,17.896
			l-12.323,8.911c-3.42,2.474-4.187,7.253-1.712,10.673s7.253,4.188,10.673,1.713l0,0l12.323-8.91
			c4.499,6.487,8.666,12.912,12.499,19.273l-17.567,12.753c-3.42,2.474-4.188,7.253-1.713,10.673s7.253,4.188,10.674,1.713
			l16.316-11.754c3.88,7.141,7.317,14.117,10.338,20.892c-0.252,0.151-0.518,0.315-0.771,0.493l-18.592,13.447
			c-3.42,2.475-4.187,7.253-1.712,10.673c2.475,3.421,7.253,4.188,10.673,1.713l0,0l16.33-11.817
			c2.852,7.566,5.229,15.304,7.115,23.167l-16.203,11.716c-3.42,2.475-4.188,7.253-1.713,10.673
			c2.475,3.421,7.253,4.188,10.673,1.713l0,0l10.111-7.305c1.656,16.961-1.467,29.359-9.049,34.857l-62.575,45.259
			c0.855-9.179,0.456-18.432-1.188-27.502c0.253-0.151,0.505-0.316,0.758-0.493l24.722-17.959c3.42-2.475,4.187-7.253,1.712-10.674
			c-2.475-3.42-7.253-4.187-10.673-1.712l0,0l-20.146,14.572c-0.151-0.557-0.29-1.112-0.455-1.669l-0.075-0.252
			c-1.884-6.749-4.234-13.738-7.04-20.93l14.257-10.313c3.42-2.475,4.187-7.253,1.712-10.674c-2.475-3.42-7.253-4.187-10.673-1.712
			l-11.375,8.266c-3.117-6.808-6.602-13.726-10.452-20.753l20.828-15.065c3.421-2.474,4.188-7.253,1.713-10.673
			s-7.253-4.188-10.673-1.713l0,0l-19.565,14.155c-2.132-3.505-4.352-7.022-6.66-10.553l-0.127-0.189
			c-1.062-1.609-2.136-3.224-3.223-4.841l-0.088-0.127c-0.843-1.18-1.656-2.363-2.439-3.551l12.373-8.91
			c3.42-2.475,4.188-7.254,1.713-10.674s-7.253-4.187-10.674-1.713l-12.449,9.012c-0.842-1.146-1.71-2.287-2.604-3.425l-0.088-0.114
			c-1.188-1.542-2.385-3.066-3.59-4.575l-0.139-0.177c-2.62-3.294-5.266-6.505-7.938-9.631l19.564-14.155
			c3.421-2.474,4.188-7.253,1.713-10.673s-7.253-4.188-10.673-1.713l-20.778,14.977c-5.451-5.847-10.928-11.324-16.43-16.43
			l11.374-8.266c3.421-2.475,4.188-7.253,1.713-10.673c-2.475-3.42-7.253-4.187-10.673-1.713l0,0l-14.257,10.313
			c-5.953-4.904-11.855-9.328-17.694-13.233l-0.215-0.151l-1.402-0.923l20.222-14.534c3.42-2.475,4.187-7.253,1.712-10.674
			c-2.474-3.42-7.253-4.187-10.673-1.712L93.97,199.068c-0.253,0.177-0.48,0.366-0.708,0.569
			c-8.099-4.403-16.761-7.681-25.745-9.745l62.574-45.259c7.545-5.523,20.298-4.6,35.894,2.288L165.96,146.908z M111.74,54.052
			c4.522,6.236,8.409,12.909,11.603,19.918l-22.939,16.595c-3.42,2.475-4.187,7.253-1.712,10.673
			c2.474,3.42,7.253,4.187,10.673,1.712l0,0l19.388-14.029c5.056,18.958,2.793,35.729-7.672,43.288L65.786,172.21
			c0.62-6.168,0.45-12.39-0.506-18.516l22.067-15.962c3.42-2.475,4.188-7.253,1.713-10.673s-7.253-4.187-10.674-1.712
			l-16.974,12.272c-1.652-4.986-3.642-9.855-5.952-14.572l13.902-10.111c3.42-2.475,4.187-7.253,1.712-10.673
			c-2.474-3.42-7.253-4.187-10.673-1.713l0,0l-12.562,9.087c-1.365-2.115-2.802-4.221-4.311-6.319l-4.486-6.193l68.147-49.291
			l4.486,6.193L111.74,54.052z M84.858,16.869L98.305,35.46L30.158,84.751L16.71,66.16L84.858,16.869z"/>
		<path fill="#C19A67" d="M153.233,307.115c-17.922-24.784-44.514-43.287-60.666-31.597c-16.152,11.691-6.862,42.706,11.059,67.479
			c17.922,24.771,44.514,43.287,60.666,31.597C180.443,362.902,171.154,331.888,153.233,307.115z M116.062,333.998
			c-16.582-22.927-18.831-42.972-14.496-46.131c4.335-3.16,22.749,5.282,39.269,28.209c16.519,22.927,18.831,42.972,14.496,46.131
			C150.996,365.367,132.632,356.912,116.062,333.998L116.062,333.998z"/>
	</g>
</g>
</svg>
