<?xml version="1.0" encoding="iso-8859-1"?>
<!-- Generator: Adobe Illustrator 16.0.4, SVG Export Plug-In . SVG Version: 6.00 Build 0)  -->
<!DOCTYPE svg PUBLIC "-//W3C//DTD SVG 1.1//EN" "http://www.w3.org/Graphics/SVG/1.1/DTD/svg11.dtd">
<svg version="1.1" id="Layer_1" xmlns="http://www.w3.org/2000/svg" xmlns:xlink="http://www.w3.org/1999/xlink" x="0px" y="0px"
	 width="62px" height="62.375px" viewBox="0 0 62 62.375" style="enable-background:new 0 0 62 62.375;" xml:space="preserve">
<path style="fill:none;stroke:#B3B3B3;stroke-width:3;stroke-miterlimit:10;" d="M24.134,37.734
	c-2.36,1.984-4.569,4.842-5.511,8.347c-0.495,1.843-1.382,3.257-2.455,4.341"/>
<path style="fill:none;stroke:#B3B3B3;stroke-width:3;stroke-miterlimit:10;" d="M46.694,14.596
	c-2.592,2.258-4.618,4.989-5.364,8.226c-0.602,2.61-1.625,4.682-2.852,6.317"/>
<path style="fill:none;stroke:#B3B3B3;stroke-width:3;stroke-miterlimit:10;" d="M60.537,7.239
	c-4.114,1.344-9.701,3.749-13.843,7.357"/>
<path style="fill:none;stroke:#B3B3B3;stroke-width:3;stroke-miterlimit:10;" d="M38.479,29.14
	c-2.723,3.634-6.445,5.116-8.766,5.582c-1.532,0.308-3.609,1.355-5.579,3.013"/>
<path style="fill:none;stroke:#B3B3B3;stroke-width:3;stroke-miterlimit:10;" d="M16.168,50.422
	C12.73,53.895,5.667,54.258,1.792,54.25"/>
<g>
</g>
<g>
</g>
<g>
</g>
<g>
</g>
<g>
</g>
<g>
</g>
<g>
</g>
<g>
</g>
<g>
</g>
<g>
</g>
<g>
</g>
<g>
</g>
<g>
</g>
<g>
</g>
<g>
</g>
</svg>
