<svg viewBox="0 -133 512.00003 512" xmlns="http://www.w3.org/2000/svg"><path d="m496.761719 69.714844h-336.273438c3.992188-5.96875 6.175781-12.578125 6.175781-19.617188 0-28.5625-35.824218-50.097656-83.332031-50.097656-47.507812 0-83.332031 21.535156-83.332031 50.097656v146.78125c0 28.558594 35.824219 50.097656 83.332031 50.097656h413.429688c8.414062 0 15.238281-6.824218 15.238281-15.238281v-146.785156c0-8.414063-6.824219-15.238281-15.238281-15.238281zm-413.429688-39.238282c32.273438 0 52.855469 12.882813 52.855469 19.621094 0 6.734375-20.582031 19.617188-52.855469 19.617188-32.273437 0-52.855469-12.882813-52.855469-19.617188 0-6.738281 20.582032-19.621094 52.855469-19.621094zm398.191407 186.023438h-21.203126v-41.203125c0-8.414063-6.820312-15.238281-15.238281-15.238281-8.414062 0-15.238281 6.824218-15.238281 15.238281v41.203125h-22.800781v-20.886719c0-8.414062-6.824219-15.238281-15.238281-15.238281-8.417969 0-15.238282 6.824219-15.238282 15.238281v20.886719h-22.804687v-41.203125c0-8.414063-6.820313-15.238281-15.238281-15.238281-8.414063 0-15.238282 6.824218-15.238282 15.238281v41.203125h-22.800781v-20.886719c0-8.414062-6.824219-15.238281-15.238281-15.238281-8.417969 0-15.238282 6.824219-15.238282 15.238281v20.886719h-22.804687v-41.203125c0-8.414063-6.820313-15.238281-15.238281-15.238281-8.414063 0-15.238282 6.824218-15.238282 15.238281v41.203125h-22.800781v-20.886719c0-8.414062-6.824219-15.238281-15.238281-15.238281-8.417969 0-15.238281 6.824219-15.238281 15.238281v20.886719h-22.804688v-41.203125c0-8.414063-6.824219-15.238281-15.238281-15.238281s-15.238281 6.824218-15.238281 15.238281v41.203125h-22.804688v-20.886719c0-8.414062-6.820312-15.238281-15.234375-15.238281-8.417968 0-15.238281 6.824219-15.238281 15.238281v17.71875c-16.640625-4.25-26.414063-11.8125-26.414063-16.453125v-107.480468c14.183594 6.804687 32.433594 10.792968 52.855469 10.792968h398.191407zm0 0"/></svg>