<?xml version="1.0" encoding="iso-8859-1"?>
<!-- Generator: Adobe Illustrator 16.0.4, SVG Export Plug-In . SVG Version: 6.00 Build 0)  -->
<!DOCTYPE svg PUBLIC "-//W3C//DTD SVG 1.1//EN" "http://www.w3.org/Graphics/SVG/1.1/DTD/svg11.dtd">
<svg version="1.1" id="Layer_1" xmlns="http://www.w3.org/2000/svg" xmlns:xlink="http://www.w3.org/1999/xlink" x="0px" y="0px"
	 width="49.125px" height="62.375px" viewBox="0 0 49.125 62.375" style="enable-background:new 0 0 49.125 62.375;"
	 xml:space="preserve">
<g>
	<path d="M43.942,17.358c-0.175-1.641-1.667-2.983-3.317-2.983h-6.5c-1.65,0-3-1.35-3-3l0,0c0-1.65,1.125-3,2.5-3s2.5-1.35,2.5-3v-1
		c0-1.65-1.35-3-3-3h-17c-1.65,0-3,1.35-3,3v1c0,1.65,1.125,3,2.5,3s2.5,1.35,2.5,3l0,0c0,1.65-1.35,3-3,3h-6.5
		c-1.65,0-3.143,1.342-3.317,2.983L0.942,58.392c-0.175,1.641,1.033,2.983,2.683,2.983h42c1.65,0,2.857-1.343,2.683-2.983
		L43.942,17.358z"/>
</g>
<g>
	<path style="fill:#333333;" d="M29.77,31.938c-0.051,0.903-0.103,1.909-0.103,3.432v7.25c0,2.864-0.567,4.619-1.78,5.703
		c-1.213,1.135-2.967,1.496-4.542,1.496c-1.497,0-3.148-0.361-4.154-1.032l0.567-1.729c0.826,0.516,2.116,0.98,3.664,0.98
		c2.322,0,4.025-1.213,4.025-4.36v-1.394h-0.052c-0.697,1.161-2.039,2.09-3.974,2.09c-3.096,0-5.315-2.632-5.315-6.089
		c0-4.232,2.761-6.632,5.625-6.632c2.167,0,3.354,1.135,3.896,2.168h0.051l0.104-1.884H29.77z M27.422,36.865
		c0-0.387-0.025-0.722-0.129-1.031c-0.412-1.316-1.522-2.4-3.173-2.4c-2.167,0-3.716,1.832-3.716,4.722
		c0,2.452,1.239,4.49,3.69,4.49c1.393,0,2.658-0.877,3.148-2.322c0.129-0.387,0.18-0.826,0.18-1.213V36.865z"/>
</g>
<g>
</g>
<g>
</g>
<g>
</g>
<g>
</g>
<g>
</g>
<g>
</g>
<g>
</g>
<g>
</g>
<g>
</g>
<g>
</g>
<g>
</g>
<g>
</g>
<g>
</g>
<g>
</g>
<g>
</g>
</svg>
